<svg width="60" height="60" viewBox="0 0 60 60" fill="none" xmlns="http://www.w3.org/2000/svg">
<path d="M30 55V30M30 30L51.825 17.4M30 30L8.175 17.4M52.5 40.02V19.975C52.4985 19.1027 52.2665 18.2462 51.8274 17.4924C51.3884 16.7386 50.758 16.1142 50 15.6825L32.5 5.66248C31.7383 5.22847 30.8767 5.00024 30 5.00024C29.1233 5.00024 28.2617 5.22847 27.5 5.66248L10 15.6825C8.4525 16.57 7.5 18.2075 7.5 19.9775V40.0225C7.5 41.795 8.4525 43.43 10 44.315L27.5 54.335C28.2617 54.769 29.1233 54.9972 30 54.9972C30.8767 54.9972 31.7383 54.769 32.5 54.335L50 44.315C51.5475 43.4275 52.5 41.79 52.5 40.02Z" stroke="#3D4B5E" stroke-width="5" stroke-linecap="round" stroke-linejoin="round"/>
</svg>
