<svg width="60" height="60" viewBox="0 0 60 60" fill="none" xmlns="http://www.w3.org/2000/svg">
<path d="M30 5C24.725 5 7.5 5.725 7.5 15V45C7.5 54.275 24.725 55 30 55C35.275 55 52.5 54.275 52.5 45V15C52.5 5.725 35.275 5 30 5ZM30 25C33.45 25 42 24.675 47.5 21.875V38.125C42 35.325 33.45 35 30 35C26.55 35 18 35.325 12.5 38.125V21.875C18 24.675 26.55 25 30 25ZM30 10C39.675 10 47.5 12.225 47.5 15C47.5 17.775 39.675 20 30 20C20.325 20 12.5 17.775 12.5 15C12.5 12.225 20.325 10 30 10ZM30 50C20.325 50 12.5 47.775 12.5 45C12.5 42.25 20.325 40 30 40C39.675 40 47.5 42.25 47.5 45C47.5 47.775 39.675 50 30 50Z" fill="#3D4B5E"/>
</svg>
