<svg width="60" height="60" viewBox="0 0 60 60" fill="none" xmlns="http://www.w3.org/2000/svg">
<path d="M12.5 52.5H47.5C50.25 52.5 52.5 50.25 52.5 47.5V29.5C52.5 28.3954 51.6046 27.5 50.5 27.5H49.5C48.3954 27.5 47.5 28.3954 47.5 29.5V45.5C47.5 46.6046 46.6046 47.5 45.5 47.5H14.5C13.3954 47.5 12.5 46.6046 12.5 45.5V14.5C12.5 13.3954 13.3954 12.5 14.5 12.5H30.5C31.6046 12.5 32.5 11.6046 32.5 10.5V9.5C32.5 8.39543 31.6046 7.5 30.5 7.5H12.5C9.75 7.5 7.5 9.75 7.5 12.5V47.5C7.5 50.25 9.75 52.5 12.5 52.5Z" fill="#3D4B5E"/>
<path d="M17.5 35V40C17.5 41.375 18.625 42.5 20 42.5H25C25.675 42.5 26.3 42.225 26.775 41.775L45.9 22.65L37.375 14.125L18.25 33.25C18.0183 33.4836 17.835 33.7606 17.7106 34.0652C17.5862 34.3698 17.5231 34.696 17.525 35.025L17.5 35ZM51.775 16.775C52.0068 16.5437 52.1906 16.269 52.3161 15.9666C52.4415 15.6641 52.5061 15.3399 52.5061 15.0125C52.5061 14.6851 52.4415 14.3609 52.3161 14.0584C52.1906 13.756 52.0068 13.4813 51.775 13.25L46.775 8.25C46.5437 8.01824 46.269 7.83437 45.9666 7.70892C45.6641 7.58347 45.3399 7.51889 45.0125 7.51889C44.6851 7.51889 44.3609 7.58347 44.0584 7.70892C43.756 7.83437 43.4813 8.01824 43.25 8.25L39.125 12.375L47.65 20.9L51.775 16.775Z" fill="#3D4B5E"/>
</svg>
