<svg width="60" height="60" viewBox="0 0 60 60" fill="none" xmlns="http://www.w3.org/2000/svg">
<g clip-path="url(#clip0_238_35)">
<mask id="mask0_238_35" style="mask-type:luminance" maskUnits="userSpaceOnUse" x="0" y="0" width="60" height="60">
<path d="M30 60C46.5685 60 60 46.5685 60 30C60 13.4315 46.5685 0 30 0C13.4315 0 0 13.4315 0 30C0 46.5685 13.4315 60 30 60Z" fill="white"/>
</mask>
<g mask="url(#mask0_238_35)">
<path d="M0 15L30 11.25L60 15V45L30 48.75L0 45V15Z" fill="#FFDA44"/>
<path d="M0 0H60V15H0V0ZM0 45H60V60H0V45Z" fill="#D80027"/>
<path d="M16.875 35.625H15V26.25H16.875V35.625ZM31.875 35.625H33.75V26.25H31.875V35.625Z" fill="#EEEEEE"/>
<path d="M24.375 38.4375C27.4816 38.4375 30 36.7586 30 34.6875C30 32.6164 27.4816 30.9375 24.375 30.9375C21.2684 30.9375 18.75 32.6164 18.75 34.6875C18.75 36.7586 21.2684 38.4375 24.375 38.4375Z" fill="#EEEEEE"/>
<path d="M16.875 23.4375C16.875 22.9197 16.4553 22.5 15.9375 22.5C15.4197 22.5 15 22.9197 15 23.4375V24.375C15 24.8928 15.4197 25.3125 15.9375 25.3125C16.4553 25.3125 16.875 24.8928 16.875 24.375V23.4375Z" fill="#D80027"/>
<path d="M33.75 23.4375C33.75 22.9197 33.3303 22.5 32.8125 22.5C32.2947 22.5 31.875 22.9197 31.875 23.4375V24.375C31.875 24.8928 32.2947 25.3125 32.8125 25.3125C33.3303 25.3125 33.75 24.8928 33.75 24.375V23.4375Z" fill="#D80027"/>
<path d="M24.375 31.875V34.6875C24.375 35.4334 24.6713 36.1488 25.1988 36.6762C25.7262 37.2037 26.4416 37.5 27.1875 37.5C27.9334 37.5 28.6488 37.2037 29.1762 36.6762C29.7037 36.1488 30 35.4334 30 34.6875V31.875H27.1875H24.375Z" fill="#D80027"/>
<path d="M16.875 24.375H15C14.4822 24.375 14.0625 24.7947 14.0625 25.3125C14.0625 25.8303 14.4822 26.25 15 26.25H16.875C17.3928 26.25 17.8125 25.8303 17.8125 25.3125C17.8125 24.7947 17.3928 24.375 16.875 24.375Z" fill="#FF9811"/>
<path d="M33.75 24.375H31.875C31.3572 24.375 30.9375 24.7947 30.9375 25.3125C30.9375 25.8303 31.3572 26.25 31.875 26.25H33.75C34.2678 26.25 34.6875 25.8303 34.6875 25.3125C34.6875 24.7947 34.2678 24.375 33.75 24.375Z" fill="#FF9811"/>
<path d="M16.875 35.625H15C14.4822 35.625 14.0625 36.0447 14.0625 36.5625C14.0625 37.0803 14.4822 37.5 15 37.5H16.875C17.3928 37.5 17.8125 37.0803 17.8125 36.5625C17.8125 36.0447 17.3928 35.625 16.875 35.625Z" fill="#FF9811"/>
<path d="M33.75 35.625H31.875C31.3572 35.625 30.9375 36.0447 30.9375 36.5625C30.9375 37.0803 31.3572 37.5 31.875 37.5H33.75C34.2678 37.5 34.6875 37.0803 34.6875 36.5625C34.6875 36.0447 34.2678 35.625 33.75 35.625Z" fill="#FF9811"/>
<path d="M18.75 31.875V34.6875C18.75 35.625 19.2188 36.3281 19.8047 36.9141L20.3906 36.2109L20.9766 37.3828C21.3615 37.4772 21.7635 37.4772 22.1484 37.3828L22.7344 36.2109L23.3203 36.9141C24.0234 36.3281 24.375 35.625 24.375 34.6875V31.875H23.3203L22.7344 32.8125L22.1484 31.875H20.9766L20.3906 32.8125L19.8047 31.875H18.75Z" fill="#FF9811"/>
<path d="M14.2969 29.0625C14.1726 29.0625 14.0533 29.1119 13.9654 29.1998C13.8775 29.2877 13.8281 29.4069 13.8281 29.5312C13.8281 29.6556 13.8775 29.7748 13.9654 29.8627C14.0533 29.9506 14.1726 30 14.2969 30H34.4531C34.5774 30 34.6967 29.9506 34.7846 29.8627C34.8725 29.7748 34.9219 29.6556 34.9219 29.5312C34.9219 29.4069 34.8725 29.2877 34.7846 29.1998C34.6967 29.1119 34.5774 29.0625 34.4531 29.0625H14.2969ZM14.2969 31.875C14.1726 31.875 14.0533 31.9244 13.9654 32.0123C13.8775 32.1002 13.8281 32.2194 13.8281 32.3438C13.8281 32.4681 13.8775 32.5873 13.9654 32.6752C14.0533 32.7631 14.1726 32.8125 14.2969 32.8125H17.5781C17.7024 32.8125 17.8217 32.7631 17.9096 32.6752C17.9975 32.5873 18.0469 32.4681 18.0469 32.3438C18.0469 32.2194 17.9975 32.1002 17.9096 32.0123C17.8217 31.9244 17.7024 31.875 17.5781 31.875H14.2969ZM31.1719 31.875C31.0476 31.875 30.9283 31.9244 30.8404 32.0123C30.7525 32.1002 30.7031 32.2194 30.7031 32.3438C30.7031 32.4681 30.7525 32.5873 30.8404 32.6752C30.9283 32.7631 31.0476 32.8125 31.1719 32.8125H34.4531C34.5774 32.8125 34.6967 32.7631 34.7846 32.6752C34.8725 32.5873 34.9219 32.4681 34.9219 32.3438C34.9219 32.2194 34.8725 32.1002 34.7846 32.0123C34.6967 31.9244 34.5774 31.875 34.4531 31.875H31.1719Z" fill="#D80027"/>
<path d="M22.9688 19.6875C22.1484 19.6875 21.4453 20.2734 21.2109 20.9766L20.625 20.8594C19.5703 20.8594 18.75 21.6797 18.75 22.7344C18.75 23.7891 19.5703 24.6094 20.625 24.6094C21.4453 24.6094 22.1484 24.1406 22.3828 23.3203C22.7246 23.4436 23.0948 23.4649 23.4485 23.3817C23.8022 23.2985 24.1241 23.1143 24.375 22.8516C24.6259 23.1143 24.9478 23.2985 25.3015 23.3817C25.6552 23.4649 26.0254 23.4436 26.3672 23.3203C26.4809 23.6753 26.6978 23.9883 26.9902 24.2193C27.2827 24.4504 27.6373 24.5891 28.0089 24.6177C28.3805 24.6463 28.7522 24.5635 29.0766 24.3799C29.4009 24.1963 29.6632 23.9202 29.8298 23.5868C29.9965 23.2534 30.0601 22.878 30.0124 22.5083C29.9647 22.1387 29.8079 21.7916 29.562 21.5115C29.3162 21.2314 28.9924 21.0309 28.6321 20.9356C28.2718 20.8403 27.8912 20.8546 27.5391 20.9766C27.426 20.6727 27.2362 20.4034 26.988 20.1949C26.7399 19.9863 26.4419 19.8457 26.1231 19.7866C25.8044 19.7276 25.4758 19.7522 25.1694 19.8581C24.863 19.9639 24.5893 20.1474 24.375 20.3906C24.0234 19.9219 23.5547 19.6875 22.9688 19.6875ZM22.9688 20.625C23.5547 20.625 23.9062 21.0938 23.9062 21.5625C23.9062 22.1484 23.5547 22.5 22.9688 22.5C22.5 22.5 22.0312 22.1484 22.0312 21.5625C22.0312 21.0938 22.5 20.625 22.9688 20.625ZM25.7812 20.625C26.3672 20.625 26.7188 21.0938 26.7188 21.5625C26.7188 22.1484 26.3672 22.5 25.7812 22.5C25.3125 22.5 24.8438 22.1484 24.8438 21.5625C24.8438 21.0938 25.3125 20.625 25.7812 20.625ZM20.625 21.7969L21.0938 21.9141L21.5625 22.8516C21.5625 23.3203 21.0938 23.6719 20.625 23.6719C20.1562 23.6719 19.6875 23.3203 19.6875 22.7344C19.6875 22.2656 20.1562 21.7969 20.625 21.7969ZM28.125 21.7969C28.7109 21.7969 29.0625 22.2656 29.0625 22.7344C29.0625 23.3203 28.7109 23.6719 28.125 23.6719C27.6562 23.6719 27.1875 23.3203 27.1875 22.8516L27.6562 21.9141L28.125 21.7969Z" fill="#EEEEEE"/>
<path d="M23.4375 18.75H25.3125V22.5H23.4375V18.75Z" fill="#FF9811"/>
<path d="M24.375 26.25H30V31.875H24.375V26.25Z" fill="#EEEEEE"/>
<path d="M29.0625 24.375L28.125 25.3125H20.625L19.6875 24.375C19.6875 22.8516 21.7969 21.5625 24.375 21.5625C26.9531 21.5625 29.0625 22.8516 29.0625 24.375ZM18.75 26.25H24.375V31.875H18.75V26.25Z" fill="#D80027"/>
<path d="M28.3594 28.3594C28.3594 27.7122 27.8347 27.1875 27.1875 27.1875C26.5403 27.1875 26.0156 27.7122 26.0156 28.3594V29.7656C26.0156 30.4128 26.5403 30.9375 27.1875 30.9375C27.8347 30.9375 28.3594 30.4128 28.3594 29.7656V28.3594Z" fill="#D80027"/>
<path d="M19.6875 27.1875V28.125H20.625V30H19.6875V30.9375H23.4375V30H22.5V28.125H23.4375V27.1875H19.6875ZM20.625 25.3125H28.125V26.25H20.625V25.3125Z" fill="#FF9811"/>
<path d="M21.7969 24.375C22.1852 24.375 22.5 24.0602 22.5 23.6719C22.5 23.2835 22.1852 22.9688 21.7969 22.9688C21.4085 22.9688 21.0938 23.2835 21.0938 23.6719C21.0938 24.0602 21.4085 24.375 21.7969 24.375Z" fill="#FFDA44"/>
<path d="M24.375 24.375C24.7633 24.375 25.0781 24.0602 25.0781 23.6719C25.0781 23.2835 24.7633 22.9688 24.375 22.9688C23.9867 22.9688 23.6719 23.2835 23.6719 23.6719C23.6719 24.0602 23.9867 24.375 24.375 24.375Z" fill="#FFDA44"/>
<path d="M26.9531 24.375C27.3415 24.375 27.6562 24.0602 27.6562 23.6719C27.6562 23.2835 27.3415 22.9688 26.9531 22.9688C26.5648 22.9688 26.25 23.2835 26.25 23.6719C26.25 24.0602 26.5648 24.375 26.9531 24.375Z" fill="#FFDA44"/>
<path d="M19.8047 31.875V36.9141C20.1548 37.1571 20.5555 37.3174 20.9766 37.3828V31.875H19.8047ZM22.1484 31.875V37.3828C22.5695 37.3174 22.9702 37.1571 23.3203 36.9141V31.875H22.1484Z" fill="#D80027"/>
<path d="M24.375 33.75C25.4105 33.75 26.25 32.9105 26.25 31.875C26.25 30.8395 25.4105 30 24.375 30C23.3395 30 22.5 30.8395 22.5 31.875C22.5 32.9105 23.3395 33.75 24.375 33.75Z" fill="#338AF3"/>
<path d="M33.75 37.5H31.875C31.3572 37.5 30.9375 37.9197 30.9375 38.4375C30.9375 38.9553 31.3572 39.375 31.875 39.375H33.75C34.2678 39.375 34.6875 38.9553 34.6875 38.4375C34.6875 37.9197 34.2678 37.5 33.75 37.5Z" fill="#338AF3"/>
<path d="M16.875 37.5H15C14.4822 37.5 14.0625 37.9197 14.0625 38.4375C14.0625 38.9553 14.4822 39.375 15 39.375H16.875C17.3928 39.375 17.8125 38.9553 17.8125 38.4375C17.8125 37.9197 17.3928 37.5 16.875 37.5Z" fill="#338AF3"/>
</g>
</g>
<defs>
<clipPath id="clip0_238_35">
<rect width="60" height="60" fill="white"/>
</clipPath>
</defs>
</svg>
