<svg width="60" height="60" viewBox="0 0 60 60" fill="none" xmlns="http://www.w3.org/2000/svg">
<path fill-rule="evenodd" clip-rule="evenodd" d="M7.5 12.5C7.5 11.1739 8.02678 9.90215 8.96447 8.96447C9.90215 8.02678 11.1739 7.5 12.5 7.5H35C36.3261 7.5 37.5979 8.02678 38.5355 8.96447C39.4732 9.90215 40 11.1739 40 12.5V20H47.5C48.8261 20 50.0979 20.5268 51.0355 21.4645C51.9732 22.4021 52.5 23.6739 52.5 25V47.5C52.5 48.8261 51.9732 50.0979 51.0355 51.0355C50.0979 51.9732 48.8261 52.5 47.5 52.5H25C23.6739 52.5 22.4021 51.9732 21.4645 51.0355C20.5268 50.0979 20 48.8261 20 47.5V40H12.5C11.1739 40 9.90215 39.4732 8.96447 38.5355C8.02678 37.5979 7.5 36.3261 7.5 35V12.5ZM35 12.5H12.5V35H22.5C23.163 35 23.7989 35.2634 24.2678 35.7322C24.7366 36.2011 25 36.837 25 37.5V47.5H47.5V25H37.5C36.837 25 36.2011 24.7366 35.7322 24.2678C35.2634 23.7989 35 23.163 35 22.5V12.5Z" fill="#3D4B5E"/>
</svg>
