<svg width="60" height="60" viewBox="0 0 60 60" fill="none" xmlns="http://www.w3.org/2000/svg">
<g clip-path="url(#clip0_221_39)">
<path d="M29.97 0C13.41 0 0 13.44 0 30C0 46.56 13.41 60 29.97 60C46.56 60 60 46.56 60 30C60 13.44 46.56 0 29.97 0ZM50.76 18H41.91C40.9696 14.2848 39.5794 10.6983 37.77 7.32C43.2423 9.20401 47.8535 12.9952 50.76 18ZM30 6.12C32.49 9.72 34.44 13.71 35.73 18H24.27C25.56 13.71 27.51 9.72 30 6.12ZM6.78 36C6.3 34.08 6 32.07 6 30C6 27.93 6.3 25.92 6.78 24H16.92C16.68 25.98 16.5 27.96 16.5 30C16.5 32.04 16.68 34.02 16.92 36H6.78ZM9.24 42H18.09C19.05 45.75 20.43 49.35 22.23 52.68C16.7536 50.8032 12.1402 47.0101 9.24 42ZM18.09 18H9.24C12.1402 12.9899 16.7536 9.19683 22.23 7.32C20.4206 10.6983 19.0304 14.2848 18.09 18ZM30 53.88C27.51 50.28 25.56 46.29 24.27 42H35.73C34.44 46.29 32.49 50.28 30 53.88ZM37.02 36H22.98C22.71 34.02 22.5 32.04 22.5 30C22.5 27.96 22.71 25.95 22.98 24H37.02C37.29 25.95 37.5 27.96 37.5 30C37.5 32.04 37.29 34.02 37.02 36ZM37.77 52.68C39.57 49.35 40.95 45.75 41.91 42H50.76C47.8535 47.0048 43.2423 50.796 37.77 52.68ZM43.08 36C43.32 34.02 43.5 32.04 43.5 30C43.5 27.96 43.32 25.98 43.08 24H53.22C53.7 25.92 54 27.93 54 30C54 32.07 53.7 34.08 53.22 36H43.08Z" fill="#3D4B5E"/>
</g>
<defs>
<clipPath id="clip0_221_39">
<rect width="60" height="60" fill="white"/>
</clipPath>
</defs>
</svg>
