<svg width="60" height="60" viewBox="0 0 60 60" fill="none" xmlns="http://www.w3.org/2000/svg">
<path d="M41.165 18.75C39.1075 10.5925 34.88 5 30 5C23.0975 5 17.5 16.1925 17.5 30C17.5 43.8075 23.0975 55 30 55C30.8567 54.9967 31.69 54.83 32.5 54.5M37.985 34.2675L47.52 38.9175L42.87 48.4525" stroke="#3D4B5E" stroke-width="5" stroke-linecap="round" stroke-linejoin="round"/>
<path d="M47.5 38.925C42.99 41.1375 36.815 42.5 30 42.5C16.1925 42.5 5 36.9025 5 30C5 23.0975 16.1925 17.5 30 17.5C42.095 17.5 52.1825 21.795 54.5 27.5" stroke="#3D4B5E" stroke-width="5" stroke-linecap="round" stroke-linejoin="round"/>
</svg>
